<?xml version="1.0" encoding="utf-8"?>
<!-- Generator: Adobe Illustrator 24.1.3, SVG Export Plug-In . SVG Version: 6.00 Build 0)  -->
<svg version="1.1" id="Layer_1" xmlns="http://www.w3.org/2000/svg" xmlns:xlink="http://www.w3.org/1999/xlink" x="0px" y="0px"
	 viewBox="0 0 1366 768" style="enable-background:new 0 0 1366 768;" xml:space="preserve">
<style type="text/css">
	.st0{fill:none;stroke:#726B68;stroke-miterlimit:10;}
	.st1{fill:none;stroke:#726B68;stroke-width:0.75;stroke-miterlimit:10;}
	.st2{fill:#726B68;}
	.st3{fill:#8E8580;}
	.st4{fill:none;stroke:#8E8580;stroke-miterlimit:10;}
	.st5{fill:#97A3A8;}
	.st6{fill:#7E8689;}
</style>
<g>
	<path class="st0" d="M918.5,548.5c84.2-26.2,168.3-52.3,252.5-78.5l171.5,43.5l-8.5,4.5l1.5,45.5c1.1,0.2,3,0.6,5,2
		c1.5,1,2.4,2.2,3,3c-81.8,34.8-163.7,69.7-245.5,104.5c-57.8-23.5-115.7-47-173.5-70.5c-2.6-5.9-5.6-14.4-7-25
		C915.9,565.4,917.1,555.3,918.5,548.5z"/>
	<path class="st0" d="M1334,518l-241,92c-56-19.7-112-39.3-168-59c-1.1,7.1-1.9,16.3-1,27c0.7,8.6,2.3,16,4,22
		c57,21.3,114,42.7,171,64c79.2-33.4,158.4-66.8,237.6-100.3"/>
	<path class="st1" d="M1093.5,610.5c-1,4.6-1.8,10-2,16c-0.4,16.6,4.2,29.9,8,38"/>
	<polygon class="st2" points="1309.2,583.1 1347.5,616.5 1190.5,633.5 	"/>
	<path class="st2" d="M963,618.1c7.3,13.6,14.7,27.2,22,40.9c20.7-2.3,41.3-4.7,62-7C1019,640.7,991,629.4,963,618.1z"/>
	<path class="st0" d="M989.5,658.5c0,8.7,0,17.3,0,26"/>
	<path class="st2" d="M1339.5,637.5c2.7,2,5.3,4,8,6c0,0.7,0,1.3,0,2s0,1.3,0,2c-121,15-242,30-363,45L947.9,612l8.2,4.1l32.3,67.4
		L1339,641C1339.4,633.1,1339.5,637.5,1339.5,637.5z"/>
	<path class="st0" d="M1339.7,617.3c-0.1,8.1-0.2,16.1-0.2,24.2"/>
	<path class="st3" d="M948,613c-15.7,2.7-31.3,5.3-47,8c-1.3,5.5-2.4,13.7,0,23c0.6,2.2,1.3,4.2,2,6c0,2.7,0,5.3,0,8
		c5.5,5.7,11,11.3,16.5,17c26.8,27.7,53.7,55.4,80.5,83c109.7-26.7,219.3-53.3,329-80c-1.7-2.7-3.3-5.3-5-8c-1.3,1.7-2.7,3.3-4,5
		c-105,25-210,50-315,75l-96-93l-2-29l92,87c81.7-18.2,163.3-36.4,245-54.7l-259.5,32.2c-7.5-16.5-15-33-22.6-49.5
		C957.3,633,952.6,623,948,613z"/>
	<path class="st4" d="M999,715c-0.6,4.5-0.9,10.9,0.5,18.5c1.3,7,3.6,12.6,5.5,16.5"/>
	<path class="st4" d="M1323.3,650.5c0.1,7,0.2,14,0.2,21"/>
</g>
<g>
	<g>
		<path class="st5" d="M1034.1,546.1c-7.1,0-14.3,0-21.4,0c-5.8,0-5.8,9,0,9c7.1,0,14.3,0,21.4,0
			C1039.9,555.1,1039.9,546.1,1034.1,546.1L1034.1,546.1z"/>
	</g>
</g>
<g>
	<g>
		<path class="st5" d="M1071.2,547.5c-4.6,0-9.3,0-13.9,0c-6.3,0-6.3,9.8,0,9.8c4.6,0,9.3,0,13.9,0
			C1077.5,557.2,1077.5,547.5,1071.2,547.5L1071.2,547.5z"/>
	</g>
</g>
<g>
	<g>
		<path class="st5" d="M1075.2,548.4c-2.7-2.7-5.5-5.5-8.2-8.2c-3.8-3.8-9.6,2.1-5.8,5.8c2.7,2.7,5.5,5.5,8.2,8.2
			C1073.1,558,1078.9,552.2,1075.2,548.4L1075.2,548.4z"/>
	</g>
</g>
<g>
	<ellipse class="st5" cx="1051.8" cy="400.3" rx="84.7" ry="59.3"/>
	<ellipse class="st5" cx="1095" cy="465.6" rx="93.8" ry="65.7"/>
	<path class="st5" d="M1134.4,387.4c0.4,3.1,1.6,8.7,5.4,14.6c4,6.1,8.8,9.5,11.5,11.1c-5.6-2.4-11.3-4.7-16.9-7.1V387.4z"/>
	<path class="st5" d="M1255.6,531.3c-2.7,0.7-6.4,1.4-10.8,1.4c-4.1,0-7.6-0.7-10.2-1.4c-24.3-6.5-48.5-13-72.8-19.6l21.5-68.3
		c29.5,24.8,59,49.6,88.6,74.4"/>
	<g>
		<g>
			<path class="st5" d="M1037,554.2c10.4-10.3,20.8-20.7,31.2-31c4.1-4.1-2.3-10.5-6.4-6.4c-10.4,10.3-20.8,20.7-31.2,31
				C1026.5,551.9,1032.9,558.3,1037,554.2L1037,554.2z"/>
		</g>
	</g>
	<g>
		<g>
			<path class="st5" d="M1036.7,547.6c-3.7-3.5-7.1-7.3-10.2-11.3c-1.5-1.9-3.9-2.9-6.2-1.6c-1.9,1.1-3.1,4.2-1.6,6.2
				c3.6,4.7,7.4,9.1,11.6,13.1C1034.5,558,1040.9,551.6,1036.7,547.6L1036.7,547.6z"/>
		</g>
	</g>
	<g>
		<g>
			<path class="st5" d="M1042.1,521.4c3.5,3.9-0.9,8.8,1.9,13.2c1.7,2.6,5.4,4,8.2,2.2c4.3-2.9,7.8-6.6,10.2-11.2
				c3.6-6.8-6.8-12.9-10.4-6.1c-1.5,2.8-3.3,5.1-5.9,6.9c2.7,0.7,5.5,1.4,8.2,2.2c-0.1-0.2-0.2-0.3-0.3-0.5c0.3,1,0.5,2,0.8,3
				c-0.2,0.4-0.2,0.4-0.1-0.1c0.1-0.4,0.2-0.8,0.3-1.2c0.2-0.8,0.3-1.6,0.4-2.4c0.2-1.8,0.1-3.6-0.2-5.4c-0.6-3.5-2.3-6.4-4.7-9.1
				c-2.2-2.4-6.3-2.2-8.5,0C1039.6,515.4,1039.9,519,1042.1,521.4L1042.1,521.4z"/>
		</g>
	</g>
	<g>
		<g>
			<path class="st5" d="M966.2,403.1c5.2,10.4,15.5,16.7,27,17.5c7.7,0.5,7.7-11.5,0-12c-7.4-0.5-13.4-5-16.6-11.5
				C973.1,390.1,962.7,396.2,966.2,403.1L966.2,403.1z"/>
		</g>
	</g>
	<g>
		<g>
			<path class="st5" d="M967,402.3c0.2,0.2,0.5,0.5,0.7,0.7c0.5,0.6,1.2,1,1.9,1.2c0.7,0.4,1.5,0.5,2.3,0.5c0.8,0,1.6-0.1,2.3-0.5
				c0.7-0.2,1.4-0.7,1.9-1.2c0.3-0.4,0.6-0.8,0.9-1.2c0.5-0.9,0.8-1.9,0.8-3c-0.1-0.5-0.1-1.1-0.2-1.6c-0.3-1-0.8-1.9-1.5-2.6
				c-0.2-0.2-0.5-0.5-0.7-0.7c-0.5-0.6-1.2-1-1.9-1.2c-0.7-0.4-1.5-0.5-2.3-0.5c-0.8,0-1.6,0.1-2.3,0.5c-0.7,0.2-1.4,0.7-1.9,1.2
				c-0.3,0.4-0.6,0.8-0.9,1.2c-0.5,0.9-0.8,1.9-0.8,3c0.1,0.5,0.1,1.1,0.2,1.6C965.8,400.6,966.3,401.5,967,402.3L967,402.3z"/>
		</g>
	</g>
	<g>
		<g>
			<path class="st6" d="M967.4,398.5c4.1,8,10.9,14.6,19.1,18.5c2.9,1.4,6.5,0.8,8.2-2.2c1.5-2.6,0.8-6.8-2.2-8.2
				c-6.5-3.1-11.5-7.7-14.8-14.2C974.2,385.5,963.8,391.6,967.4,398.5L967.4,398.5z"/>
		</g>
	</g>
	<g>
		<g>
			<path class="st6" d="M968.7,390.7c-14.6,10.2-25.1,24.7-30.2,41.8c-1.2,4,3.1,9.2,7.4,7.4c15.3-6.4,31.1-11.6,47.2-15.6
				c7.5-1.9,4.3-13.4-3.2-11.6c-16.1,4-31.9,9.2-47.2,15.6c2.5,2.5,4.9,4.9,7.4,7.4c4.2-14,12.8-26.2,24.7-34.6
				C981,396.6,975,386.2,968.7,390.7L968.7,390.7z"/>
		</g>
	</g>
	<g>
		<g>
			<path class="st6" d="M985.9,416.7c2.3,1.9,4.6,3.2,7.3,4.4c0-3.9,0-7.7,0-11.6c-1.1,0.4-2.2,0.8-3.3,1.1
				c-1.5,0.5-2.8,1.4-3.6,2.8c-0.8,1.3-1.1,3.2-0.6,4.6c0.9,2.9,4.2,5.3,7.4,4.2c1.1-0.4,2.2-0.8,3.3-1.1c2.4-0.8,4.5-3,4.4-5.8
				c0-1.1-0.3-2.1-0.8-3c-0.8-1.5-2.1-2.2-3.6-2.8c-0.1,0-0.2-0.1-0.3-0.1c0.5,0.2,1,0.4,1.4,0.6c-1.3-0.6-2.5-1.3-3.6-2.1
				c0.4,0.3,0.8,0.6,1.2,0.9c-0.3-0.2-0.5-0.4-0.8-0.6c-1.2-1-2.6-1.8-4.2-1.8c-1.5,0-3.2,0.7-4.2,1.8
				C983.9,410.5,983.3,414.6,985.9,416.7L985.9,416.7z"/>
		</g>
	</g>
	<g>
		<g>
			<path class="st6" d="M967,406.8c4.7,5.9,9.6,11.1,17,13.4c0.5-3.9,1.1-7.9,1.6-11.8c-13.6-0.4-26.4,4.7-36.2,14.1
				c2.8,2.8,5.7,5.7,8.5,8.5c6.9-7.2,13-15,18.2-23.5c-3.7-1-7.5-2-11.2-3c0.6,5,2.2,9,5.8,12.6c2.4-3.1,4.8-6.3,7.3-9.4
				c-12.4-5.5-23.9,0.8-31,11.4c-3.3,5,3.3,11.4,8.2,8.2c4.9-3.2,9.6-6.8,13.9-10.9c5.6-5.3-2.9-13.8-8.5-8.5
				c-3.6,3.4-7.3,6.3-11.4,9c2.7,2.7,5.5,5.5,8.2,8.2c3-4.5,8.7-9.7,14.6-7.1c5.9,2.6,12.4-4.2,7.3-9.4c-1.2-1.2-2.1-2.3-2.3-4.1
				c-0.7-5.7-7.8-8.5-11.2-3c-4.7,7.6-10.1,14.6-16.3,21c-5.4,5.6,2.9,13.8,8.5,8.5c7.6-7.2,17.3-10.9,27.7-10.6
				c7,0.2,7.9-9.8,1.6-11.8c-5.1-1.6-8.5-6.3-11.7-10.4C970.7,392.2,962.2,400.8,967,406.8L967,406.8z"/>
		</g>
	</g>
	<g>
		<g>
			<path class="st6" d="M993.5,422.4c2.2-0.9,4.6-1.5,7-1.7c1.2-0.1,1.8-1.2,1.3-2.3c-2-4.2-5.3-7.7-9.3-10c-1.7-1-3.2,1.6-1.5,2.6
				c3.6,2.1,6.4,5.2,8.2,8.9c0.4-0.8,0.9-1.5,1.3-2.3c-2.7,0.2-5.3,0.8-7.8,1.8c-0.8,0.3-1.3,1-1,1.8
				C991.9,422.1,992.7,422.7,993.5,422.4L993.5,422.4z"/>
		</g>
	</g>
	<g>
		<g>
			<path class="st6" d="M996.1,417.3c-0.1,0.2-0.2,0.4-0.3,0.6c-0.1,0.2-0.1,0.4-0.1,0.5c0,0,0,0,0,0.1c0,0,0,0,0,0
				c0,0.1,0,0.1,0,0.2c0,0.1,0,0.1,0,0.2c0,0.2,0.1,0.3,0.2,0.4c0,0,0,0,0,0c0,0.1,0.1,0.1,0.1,0.2c0,0.1,0.1,0.1,0.1,0.2
				c0,0,0,0,0,0c0,0,0,0,0,0c0.1,0.1,0.2,0.2,0.3,0.2c0,0,0,0,0,0c0,0,0,0,0,0c0,0,0.3,0.1,0.4,0.2c0,0,0,0,0,0
				c0.4,0.1,0.3,0.1,0.6,0c0.1,0,0.2,0,0.2,0c0,0,0,0,0,0c0.1,0,0.3-0.1,0.4-0.2c0,0,0.1,0,0.1-0.1c0.1,0,0.1-0.1,0.2-0.1
				c0.1,0,0.1-0.1,0.2-0.1c0.1-0.1,0.3-0.2,0.4-0.3c0.1-0.1,0.1-0.1,0.1-0.2c0-0.1,0.1-0.1,0.1-0.2c0.1-0.1,0.1-0.3,0.2-0.4
				c0,0,0,0,0,0c0-0.1,0-0.3,0.1-0.4c0-0.2,0-0.3-0.1-0.5c0-0.2-0.1-0.3-0.2-0.4c-0.1-0.1-0.2-0.2-0.3-0.3c0,0,0,0,0,0
				c-0.1,0-0.1-0.1-0.2-0.1c-0.1,0-0.1-0.1-0.2-0.1c-0.1-0.1-0.3-0.2-0.4-0.2c-0.1,0-0.2,0-0.2,0c-0.1,0-0.2,0-0.3,0
				c-0.1,0-0.1,0-0.2,0c-0.1,0-0.1,0-0.2,0c0,0,0,0,0,0c-0.1,0-0.3,0.1-0.4,0.2c-0.1,0.1-0.3,0.2-0.4,0.3c0,0,0,0,0,0
				c-0.1,0.1-0.2,0.2-0.2,0.3c0,0,0,0,0,0c0,0.1-0.1,0.2-0.1,0.2c0,0.1-0.1,0.2-0.1,0.2c-0.1,0.3-0.1,0.7,0,1c0,0.1,0.1,0.3,0.2,0.4
				c0,0,0,0,0,0c0,0,0,0,0,0c0.1,0.1,0.2,0.2,0.2,0.3c0,0,0,0,0,0c0,0,0,0,0,0c0.1,0.1,0.2,0.2,0.3,0.2c0,0,0,0,0,0c0,0,0,0,0,0
				c0.1,0,0.2,0.1,0.2,0.1c0,0,0.1,0.1,0.2,0.1c0,0,0,0,0.1,0c0.1,0,0.2,0,0.2,0c0.1,0,0.2,0,0.2,0c0.1,0,0.2,0,0.3,0
				c0.3,0,0.3,0,0.6-0.2c0,0,0,0,0,0c0.1-0.1,0.2-0.2,0.3-0.2c0,0,0,0,0,0c0,0,0,0,0,0c0.1-0.1,0.2-0.2,0.2-0.3c0,0,0,0,0,0
				c0,0,0,0,0,0c0-0.1,0.1-0.3,0.2-0.4c0,0,0,0,0,0c0-0.2,0.1-0.3,0.1-0.5c0-0.3-0.1-0.7-0.3-0.9c-0.1-0.2-0.2-0.3-0.4-0.4
				c-0.1-0.1-0.3-0.2-0.5-0.3c-0.2-0.1-0.4-0.1-0.6,0c-0.2,0-0.4,0.1-0.6,0.2c-0.1,0.1-0.2,0.2-0.3,0.2c-0.2,0.2-0.3,0.4-0.4,0.7
				c0,0.1,0,0.3-0.1,0.4c0,0.3,0.1,0.5,0.2,0.8c0,0,0,0,0,0c-0.1-0.1-0.1-0.2-0.2-0.4c0,0,0,0.1,0,0.1c0-0.1,0-0.3-0.1-0.4
				c0,0,0,0.1,0,0.1c0-0.1,0-0.3,0.1-0.4c0,0,0,0.1,0,0.1c0.1-0.1,0.1-0.2,0.2-0.4c0,0,0,0.1,0,0.1c0.1-0.1,0.2-0.2,0.2-0.3
				c0,0,0,0-0.1,0.1c0.1-0.1,0.2-0.2,0.3-0.2c0,0,0,0-0.1,0c0.1-0.1,0.2-0.1,0.4-0.2c0,0,0,0-0.1,0c0.1,0,0.3,0,0.4-0.1
				c0,0-0.1,0-0.1,0c0.1,0,0.3,0,0.4,0.1c0,0-0.1,0-0.1,0c0.1,0.1,0.2,0.1,0.4,0.2c0,0-0.1,0-0.1,0c0.1,0.1,0.2,0.2,0.3,0.2
				c0,0,0,0-0.1-0.1c0.1,0.1,0.2,0.2,0.2,0.3c0,0,0,0,0-0.1c0.1,0.1,0.1,0.2,0.2,0.4c0,0,0,0,0-0.1c0,0.1,0,0.3,0.1,0.4
				c0,0,0,0,0-0.1c0,0.1,0,0.3-0.1,0.4c0,0,0-0.1,0-0.1c-0.1,0.1-0.1,0.2-0.2,0.4c0,0,0-0.1,0-0.1c-0.1,0.1-0.2,0.2-0.2,0.3
				c0,0,0,0,0.1-0.1c-0.1,0.1-0.2,0.2-0.3,0.2c0,0,0,0,0.1,0c-0.1,0.1-0.2,0.1-0.4,0.2c0,0,0,0,0.1,0c-0.1,0-0.3,0-0.4,0.1
				c0,0,0,0,0.1,0c-0.1,0-0.3,0-0.4-0.1c0,0,0,0,0.1,0c-0.1-0.1-0.2-0.1-0.4-0.2c0,0,0,0,0.1,0c-0.1-0.1-0.2-0.2-0.3-0.2
				c0,0,0,0,0,0c-0.1-0.1-0.2-0.2-0.2-0.3c0,0,0,0,0,0.1c-0.1-0.1-0.1-0.2-0.2-0.4c0,0,0,0,0,0c0-0.1,0-0.3-0.1-0.4c0,0,0,0,0,0.1
				c0-0.1,0-0.3,0.1-0.4c0,0,0,0,0,0c0.1-0.1,0.1-0.2,0.2-0.4c0,0,0,0,0,0.1c0.1-0.1,0.2-0.2,0.2-0.3c0,0,0,0-0.1,0.1
				c0.1-0.1,0.2-0.2,0.3-0.2c-0.1,0.1-0.2,0.1-0.2,0.1c-0.1,0-0.2,0.1-0.3,0.2c0.1-0.1,0.2-0.1,0.4-0.2c0,0,0,0-0.1,0
				c0.1,0,0.3,0,0.4-0.1c0,0,0,0,0,0c0.1,0,0.3,0,0.4,0.1c0,0,0,0-0.1,0c0.1,0.1,0.2,0.1,0.4,0.2c0,0,0,0,0,0
				c0.1,0.1,0.2,0.2,0.3,0.2c0,0,0,0,0,0c0.1,0.1,0.2,0.2,0.2,0.3c0,0,0,0,0-0.1c0.1,0.1,0.1,0.2,0.2,0.4c0,0,0,0,0-0.1
				c0,0.1,0,0.3,0.1,0.4c0,0,0-0.1,0-0.1c0,0.1,0,0.3-0.1,0.4c0,0,0-0.1,0-0.1c-0.1,0.1-0.1,0.2-0.2,0.4c0-0.1,0.1-0.1,0.1-0.2
				c0.1-0.2,0.2-0.4,0.2-0.6c0-0.2,0-0.4,0-0.6c0-0.2-0.1-0.4-0.3-0.5c-0.1-0.2-0.2-0.3-0.4-0.4c-0.1-0.1-0.2-0.1-0.4-0.2
				c-0.3-0.1-0.5-0.1-0.8,0c-0.1,0.1-0.2,0.1-0.4,0.2C996.4,416.9,996.3,417.1,996.1,417.3L996.1,417.3z"/>
		</g>
	</g>
	<g>
		<g>
			<path class="st6" d="M991,410.8c0.8,0.8,1.8,1.5,2.8,2c0.5,0.3,1,0.5,1.4,0.8c0.2,0.1,0.5,0.3,0.7,0.4c0.1,0.1,0.2,0.1,0.3,0.2
				c0.4,0.3-0.2-0.2,0.2,0.1c0.2,0.2,0.4,0.3,0.5,0.5c0.1,0.1,0.2,0.2,0.3,0.3c0.3,0.3-0.1-0.2,0.1,0.2c0.3,0.4,0.6,0.9,0.8,1.4
				c0.1,0.1,0.1,0.2,0.2,0.3c0,0.1,0.1,0.3,0.1,0.1c0.1,0.3,0.2,0.5,0.3,0.8c0.2,0.5,0.4,1.1,0.5,1.7c0.2,0.7,0.9,1.2,1.6,1.1
				c0.8-0.1,1.2-0.7,1.3-1.5c0-0.1,0-0.2,0-0.4c0.1-0.8-0.8-1.5-1.5-1.5c-0.9,0-1.4,0.7-1.5,1.5c0,0.1,0,0.2,0,0.4
				c1-0.1,2-0.3,2.9-0.4c-0.7-2.3-1.5-4.7-3.4-6.4c-0.9-0.8-1.9-1.4-3-2c-0.5-0.3-0.9-0.5-1.4-0.8c-0.1-0.1-0.2-0.2-0.4-0.2
				c0,0-0.4-0.3-0.2-0.1c-0.2-0.2-0.4-0.4-0.6-0.6c-0.5-0.6-1.6-0.6-2.1,0C990.4,409.3,990.4,410.2,991,410.8L991,410.8z"/>
		</g>
	</g>
	<g>
		<g>
			<path class="st6" d="M993.1,422.6c2.6-0.7,5.2-1.1,7.9-1.2c0.8,0,1.6-0.7,1.5-1.5c-0.1-1.6-1-3-1.9-4.4c-0.7-1.3-1.6-2.5-2.6-3.5
				c-1.9-2-4.3-3.4-7-4.2c-1.9-0.6-2.6,2.3-0.8,2.9c2.1,0.6,4,1.8,5.5,3.3c0.8,0.8,1.5,1.7,2.1,2.7c0.3,0.6,0.7,1.1,1,1.7
				c0.2,0.4,0.6,0.9,0.6,1.4c0.5-0.5,1-1,1.5-1.5c-2.9,0.1-5.9,0.5-8.7,1.3C990.5,420.2,991.3,423.1,993.1,422.6L993.1,422.6z"/>
		</g>
	</g>
	<g>
		<g>
			<path class="st5" d="M1082.3,526.7c-4.9,7.7-9.4,15.7-13.6,23.8c-2.9,5.6,5.5,10.5,8.4,4.9c4.2-8.1,8.7-16.1,13.6-23.8
				C1094.1,526.3,1085.7,521.4,1082.3,526.7L1082.3,526.7z"/>
		</g>
	</g>
	<path class="st5" d="M995.6,444.6c1.3,2,3,5,4.1,8.8c1.9,6.7,1.3,12.6,1.4,12.2c1-5.5,2.1-10.9,3.1-16.4
		C1001.2,447.7,998.4,446.2,995.6,444.6z"/>
	<g>
		<g>
			<path class="st6" d="M1043.6,469.7c3.4,9.9,9.5,18.7,17.3,25.6c3.8,3.4,8,6.3,12.5,8.7c4.9,2.7,10.8,5.5,16.5,4.8
				c5.7-0.7,11.1-5.9,9.4-12c-1.1,0.6-2.2,1.3-3.3,1.9c4.9,4.7,11.2,10.4,18.6,9.5c6.1-0.8,12.7-6.8,10.2-13.4
				c-1.2,0.5-2.4,1-3.7,1.5c3.4,6.3,11,11.8,18.5,9.5c6.4-2,10.9-9.6,7.6-15.9c-1.2-2.3-4.7-0.3-3.5,2c2.2,4.2-1.7,9.2-5.8,10.1
				c-5.6,1.3-10.9-3.3-13.4-7.8c-1.1-1.9-4.5-0.6-3.7,1.5c1.7,4.6-3.6,8.4-7.7,8.4c-5.7,0-10.5-4.7-14.4-8.4c-1.4-1.3-3.9,0-3.3,1.9
				c0.5,1.8-0.2,3.5-1.5,4.8c-1.6,1.6-3.6,2.2-5.8,2.2c-4.8,0-9.6-2.6-13.7-4.9c-7.8-4.4-14.8-10.5-20-17.8c-2.9-4.2-5.3-8.7-7-13.6
				C1046.7,466.2,1042.8,467.3,1043.6,469.7L1043.6,469.7z"/>
		</g>
	</g>
	<circle cx="1004" cy="391.5" r="9.1"/>
</g>
</svg>
